<?xml version="1.0" standalone="no"?>
<!DOCTYPE svg PUBLIC "-//W3C//DTD SVG 20010904//EN"
 "http://www.w3.org/TR/2001/REC-SVG-20010904/DTD/svg10.dtd">
<svg version="1.0" xmlns="http://www.w3.org/2000/svg"
 width="198.000000pt" height="214.000000pt" viewBox="0 0 198.000000 214.000000"
 preserveAspectRatio="xMidYMid meet">

<g transform="translate(0.000000,214.000000) scale(0.100000,-0.100000)"
fill="#000000" stroke="none">
<path d="M1575 1929 c-121 -43 -388 -139 -592 -211 -205 -73 -373 -135 -373
-138 1 -3 51 -35 113 -72 62 -36 200 -119 307 -184 107 -64 212 -126 233 -137
28 -16 37 -26 33 -40 -4 -15 -2 -16 10 -6 11 9 18 9 26 1 9 -9 6 -19 -13 -39
-23 -27 -23 -27 9 1 25 23 35 27 44 18 9 -9 2 -22 -32 -58 -25 -25 -37 -42
-28 -39 9 4 29 22 43 41 25 33 48 43 59 26 3 -5 -5 -20 -17 -33 -12 -13 -46
-51 -76 -84 -37 -40 -26 -32 32 25 79 77 88 83 103 69 14 -15 9 -22 -60 -85
-41 -37 -73 -70 -71 -72 3 -3 38 27 80 67 41 39 79 71 84 71 5 0 13 -6 19 -13
9 -10 -12 -33 -88 -102 -55 -49 -100 -90 -100 -92 0 -8 28 14 122 95 85 73
100 82 118 72 11 -6 20 -12 20 -14 0 -1 -56 -49 -125 -106 -69 -57 -125 -105
-125 -108 0 -6 24 12 149 111 60 48 116 87 124 87 8 0 20 -6 26 -14 12 -14 6
-19 -246 -205 -40 -30 -73 -55 -73 -58 0 -5 45 24 125 82 39 28 80 57 92 65
12 8 48 34 80 56 59 41 60 42 84 24 13 -10 22 -21 19 -23 -3 -2 -86 -57 -185
-122 -99 -65 -184 -122 -190 -127 -15 -13 27 3 45 17 17 14 309 199 340 215
17 9 27 7 51 -8 l31 -19 -139 -80 c-76 -44 -155 -90 -175 -101 -20 -12 -55
-32 -77 -46 -22 -15 -45 -26 -50 -26 -5 0 -15 -7 -22 -17 -17 -19 -23 -23 156
77 274 152 325 183 325 196 0 7 -9 15 -19 19 -11 3 -24 12 -31 20 -9 10 -5 17
19 31 39 23 39 39 -1 60 l-31 16 31 25 c18 13 32 29 32 33 0 5 -14 17 -32 26
l-32 16 32 27 c40 32 41 48 2 56 -16 4 -30 11 -30 15 0 5 14 19 30 32 17 12
30 27 30 34 0 7 -13 15 -30 19 -16 4 -30 10 -30 14 0 4 14 20 30 34 17 15 30
32 30 37 0 6 -13 13 -30 17 -16 3 -30 9 -30 12 0 4 14 20 30 36 17 16 30 35
30 42 0 8 -12 13 -30 13 -16 0 -30 4 -30 8 0 5 14 21 30 37 17 16 30 35 30 42
0 8 -12 13 -30 13 -16 0 -30 4 -30 8 0 5 14 21 30 37 17 16 30 35 30 42 0 8
-12 13 -30 13 -16 0 -30 3 -30 6 0 4 14 22 30 41 40 45 40 64 -2 56 -34 -7
-34 -4 9 53 33 44 30 57 -9 49 l-31 -7 31 43 c34 45 40 69 20 68 -7 0 -112
-36 -233 -80z m194 14 c-18 -27 -33 -49 -34 -51 -2 -3 -152 -44 -659 -182 -82
-22 -151 -38 -153 -37 -2 2 113 45 254 95 142 50 339 121 438 156 99 36 181
65 183 66 2 0 -11 -21 -29 -47z m-11 -107 c-18 -24 -43 -46 -56 -49 -22 -4
-22 -4 -6 22 28 44 57 71 76 71 16 0 14 -6 -14 -44z m-78 -19 c-31 -43 -31
-44 -128 -60 -103 -17 -583 -104 -617 -112 l-20 -5 20 10 c18 9 148 45 525
146 74 20 155 42 180 50 70 20 74 18 40 -29z m79 -82 c-22 -31 -40 -45 -56
-45 -30 0 -29 8 8 53 20 25 39 37 55 37 l25 0 -32 -45z m-59 27 c0 -20 -57
-74 -74 -71 -17 4 -15 9 16 42 33 35 58 47 58 29z m-79 -29 c-30 -51 -23 -50
-354 -83 -174 -17 -325 -30 -334 -28 -9 2 116 27 278 56 162 29 310 57 329 62
19 4 48 8 63 9 24 1 26 -2 18 -16z m150 -81 c-29 -41 -47 -54 -71 -50 -21 3
-21 4 7 40 20 27 36 37 56 38 l28 0 -20 -28z m-151 6 c-1 -22 -39 -60 -56 -56
-14 2 -13 8 10 36 29 33 46 41 46 20z m80 4 c0 -16 -58 -64 -74 -60 -25 5 22
68 52 68 12 0 22 -4 22 -8z m-149 -31 l-21 -29 -142 -7 c-79 -3 -222 -5 -318
-3 l-175 3 130 14 c217 23 478 48 513 50 l33 1 -20 -29z m-58 -81 c-17 -30
-21 -31 -63 -26 -25 3 -143 13 -264 23 -120 9 -210 20 -200 24 11 3 138 7 282
8 l264 2 -19 -31z m67 23 c-1 -13 -38 -53 -49 -53 -15 0 -14 12 5 38 14 21 44
31 44 15z m70 -1 c0 -16 -58 -64 -69 -57 -19 11 20 65 46 65 13 0 23 -4 23 -8z
m70 3 c0 -19 -47 -65 -67 -65 -28 0 -29 3 -1 40 13 18 31 30 45 30 13 0 23 -2
23 -5z m90 0 c0 -14 -65 -75 -80 -75 -30 0 -31 14 -4 48 18 23 34 32 55 32 16
0 29 -2 29 -5z m-570 -51 c124 -9 227 -18 229 -20 2 -2 -1 -15 -7 -28 l-10
-23 -74 14 c-40 7 -158 27 -262 43 -104 17 -192 33 -195 36 -3 4 17 4 44 1 28
-4 151 -14 275 -23z m-17 -49 c109 -19 201 -36 205 -39 3 -4 -1 -14 -10 -22
-15 -15 -34 -12 -230 37 -308 77 -303 80 35 24z m285 -4 c-12 -20 -38 -29 -38
-13 0 4 7 18 16 31 21 29 42 13 22 -18z m62 -1 c-21 -29 -50 -41 -50 -20 0 23
26 50 48 50 l23 0 -21 -30z m80 12 c0 -3 -10 -16 -22 -29 -38 -41 -72 -24 -38
20 14 17 26 23 40 20 11 -3 20 -8 20 -11z m-470 -47 c230 -57 213 -51 201 -74
-10 -17 -21 -15 -212 50 -111 38 -205 72 -208 75 -3 4 3 4 14 1 11 -3 103 -27
205 -52z m544 43 c-25 -45 -68 -70 -87 -52 -13 14 38 63 66 63 20 1 26 -3 21
-11z m66 -33 c-23 -24 -43 -35 -62 -35 -35 0 -35 7 -1 42 19 20 36 28 62 28
l35 0 -34 -35z m-625 -51 c93 -31 175 -62 180 -68 6 -6 18 -10 28 -8 19 4 22
-9 6 -25 -7 -7 -18 -8 -28 -3 -9 4 -97 42 -196 84 -99 41 -176 75 -170 76 5 0
86 -25 180 -56z m305 33 c0 -17 -20 -37 -37 -37 -10 0 -10 6 3 25 18 27 34 33
34 12z m-315 -75 c171 -74 195 -85 195 -94 0 -12 -22 -21 -29 -12 -3 5 -10 9
-16 9 -12 0 -335 164 -335 170 0 6 16 -1 185 -73z m368 71 c9 -9 -22 -43 -40
-43 -16 0 -16 5 -1 30 13 20 29 25 41 13z m61 -12 c9 -15 -38 -51 -54 -41 -12
7 -11 12 4 29 20 22 41 27 50 12z m66 -8 c-1 -15 -38 -53 -52 -53 -26 0 -28
13 -6 37 20 22 58 32 58 16z m68 -11 c21 -14 -41 -66 -68 -57 -22 7 -22 7 6
36 29 30 40 34 62 21z m-431 -165 c-2 -7 -10 -11 -16 -9 -14 3 -262 151 -276
164 -5 6 59 -24 143 -66 94 -47 152 -82 149 -89z m522 147 c3 -2 -9 -18 -25
-35 -22 -23 -34 -29 -54 -24 -36 9 -37 12 -4 46 22 23 34 29 54 24 14 -4 27
-9 29 -11z m-385 -3 c8 -13 -20 -45 -32 -37 -9 5 -8 12 1 26 13 22 23 25 31
11z m45 -32 c-5 -10 -19 -19 -29 -19 -24 0 -25 8 -4 31 21 24 48 14 33 -12z
m61 3 c0 -5 -9 -17 -20 -27 -26 -23 -52 -6 -30 20 13 16 50 21 50 7z m54 -11
c9 -15 -38 -51 -54 -41 -12 7 -11 12 4 29 20 22 41 27 50 12z m66 -20 c0 -18
-46 -48 -63 -42 -17 6 -17 8 2 33 14 18 27 24 41 21 11 -3 20 -9 20 -12z
m-220 -15 c0 -20 -26 -40 -35 -26 -10 16 2 40 20 40 8 0 15 -6 15 -14z m285 5
c18 -7 18 -9 -9 -34 -32 -30 -35 -31 -55 -18 -11 7 -10 13 5 35 20 27 27 29
59 17z m-237 -23 c-6 -16 -36 -34 -44 -26 -3 4 -4 14 -1 23 7 17 51 21 45 3z
m332 -5 c3 -2 -10 -18 -27 -34 -29 -25 -36 -27 -58 -17 l-25 11 27 29 c21 23
33 28 53 23 14 -4 27 -9 30 -12z m-280 -13 c0 -15 -30 -32 -46 -26 -15 6 -15
8 1 26 16 17 45 18 45 0z m-140 -15 c0 -15 -26 -32 -36 -23 -2 3 -2 13 2 22 8
20 34 21 34 1z m195 4 c4 -5 -1 -19 -11 -30 -19 -22 -23 -22 -44 -9 -12 7 -12
12 4 29 21 23 41 27 51 10z m-155 -24 c0 -16 -27 -32 -37 -22 -3 4 -3 13 0 22
8 20 37 20 37 0z m215 9 c14 -6 13 -9 -6 -30 -37 -39 -79 -23 -43 17 19 21 24
22 49 13z m-325 -11 c-1 -18 -18 -35 -24 -24 -4 6 -4 16 -1 21 7 12 25 13 25
3z m160 -18 c0 -9 -7 -18 -16 -22 -18 -7 -39 11 -30 26 11 17 46 13 46 -4z
m245 -5 c2 -4 -7 -17 -20 -30 -22 -21 -28 -22 -52 -11 l-28 13 29 23 c26 21
60 23 71 5z m-372 -5 c1 -5 -6 -11 -15 -13 -11 -2 -18 3 -18 13 0 17 30 18 33
0z m37 -20 c0 -19 -13 -25 -30 -15 -11 7 -11 11 -1 24 15 17 31 13 31 -9z
m140 11 c0 -20 -25 -37 -44 -30 -19 7 -20 16 -4 32 16 16 48 15 48 -2z m269
-5 c12 -8 13 -12 1 -26 -24 -28 -47 -36 -77 -24 l-28 11 28 24 c30 25 52 30
76 15z m-219 -11 c12 -7 12 -12 -4 -29 -15 -16 -23 -18 -38 -10 -19 10 -19 12
-2 30 19 22 23 22 44 9z m-146 -9 c9 -15 -23 -36 -36 -23 -5 5 -7 15 -4 21 9
13 33 14 40 2z m42 -22 c9 -16 -12 -33 -31 -25 -14 5 -15 9 -5 21 15 18 26 19
36 4z m172 3 c9 -6 6 -14 -11 -30 -20 -19 -26 -20 -42 -8 -16 12 -17 16 -6 30
15 17 38 20 59 8z m-123 -52 c-14 -15 -21 -17 -36 -7 -17 10 -17 13 -2 29 12
13 20 15 35 7 19 -10 19 -12 3 -29z m205 11 c0 -3 -12 -14 -25 -24 -19 -14
-29 -15 -45 -7 -26 14 -25 24 2 42 17 12 29 13 45 5 13 -6 23 -13 23 -16z
m-149 -12 c19 -10 19 -11 -3 -29 -20 -16 -25 -17 -37 -5 -12 11 -12 17 -1 29
15 19 16 19 41 5z m228 -15 c3 -3 -7 -17 -22 -30 -27 -23 -30 -23 -58 -8 l-30
15 23 20 c22 18 70 20 87 3z m-168 -15 c20 -10 20 -11 3 -30 -20 -22 -35 -24
-52 -7 -9 9 -8 16 5 30 19 21 19 21 44 7z m89 -50 c0 -5 -11 -16 -24 -24 -19
-13 -29 -14 -45 -5 -27 14 -26 24 1 42 17 12 29 13 45 5 13 -6 23 -14 23 -18z
m64 -28 l29 -19 -31 -16 c-38 -20 -43 -20 -68 -1 -19 14 -18 15 6 35 31 24 29
24 64 1z"/>
<path d="M1269 1043 c-13 -16 -12 -17 4 -4 9 7 17 15 17 17 0 8 -8 3 -21 -13z"/>
<path d="M1274 988 l-19 -23 23 19 c21 18 27 26 19 26 -2 0 -12 -10 -23 -22z"/>
<path d="M1290 885 c-7 -9 -11 -17 -9 -20 3 -2 10 5 17 15 14 24 10 26 -8 5z"/>
<path d="M1289 813 c-13 -16 -12 -17 4 -4 16 13 21 21 13 21 -2 0 -10 -8 -17
-17z"/>
<path d="M1284 748 l-19 -23 23 19 c21 18 27 26 19 26 -2 0 -12 -10 -23 -22z"/>
<path d="M1269 673 c-13 -16 -12 -17 4 -4 9 7 17 15 17 17 0 8 -8 3 -21 -13z"/>
<path d="M1260 610 c-9 -6 -10 -10 -3 -10 6 0 15 5 18 10 8 12 4 12 -15 0z"/>
</g>
</svg>
